<svg width="27" height="24" viewBox="0 0 27 24" fill="none" xmlns="http://www.w3.org/2000/svg">
    <path fill-rule="evenodd" clip-rule="evenodd" d="M16.3501 6H10.3501V18H16.3501V6ZM10.3501 4H16.3501C17.4501 4 18.3501 4.9 18.3501 6V18C18.3501 19.1 17.4501 20 16.3501 20H10.3501C9.2501 20 8.3501 19.1 8.3501 18V6C8.3501 4.9 9.2501 4 10.3501 4Z" fill="url(#paint0_linear)"/>
    <path fill-rule="evenodd" clip-rule="evenodd" d="M4.95711 7.00711C2.34763 9.61658 2.34763 13.7834 4.95711 16.3929L3.54289 17.8071C0.152369 14.4166 0.152369 8.98342 3.54289 5.5929L4.95711 7.00711Z" fill="url(#paint1_linear)"/>
    <path fill-rule="evenodd" clip-rule="evenodd" d="M6.85701 10.5071C6.24753 11.1166 6.24753 12.1834 6.85701 12.7929L5.4428 14.2071C4.05227 12.8166 4.05227 10.4834 5.4428 9.0929L6.85701 10.5071Z" fill="url(#paint2_linear)"/>
    <path fill-rule="evenodd" clip-rule="evenodd" d="M20.043 12.7929C20.6524 12.1834 20.6524 11.1166 20.043 10.5071L21.4572 9.0929C22.8477 10.4834 22.8477 12.8166 21.4572 14.2071L20.043 12.7929Z" fill="url(#paint3_linear)"/>
    <path fill-rule="evenodd" clip-rule="evenodd" d="M21.9429 16.2929C24.5523 13.6834 24.5523 9.51661 21.9429 6.90713L23.3571 5.49292C26.7476 8.88344 26.7476 14.3166 23.3571 17.7071L21.9429 16.2929Z" fill="url(#paint4_linear)"/>
    <defs>
        <linearGradient id="paint0_linear" x1="13.3501" y1="4" x2="13.3501" y2="20" gradientUnits="userSpaceOnUse">
            <stop stop-color="#6686FF"/>
            <stop offset="1" stop-color="#8F8DE2"/>
        </linearGradient>
        <linearGradient id="paint1_linear" x1="2.97855" y1="5.5929" x2="2.97855" y2="17.8071" gradientUnits="userSpaceOnUse">
            <stop stop-color="#6686FF"/>
            <stop offset="1" stop-color="#8F8DE2"/>
        </linearGradient>
        <linearGradient id="paint2_linear" x1="5.62846" y1="9.0929" x2="5.62846" y2="14.2071" gradientUnits="userSpaceOnUse">
            <stop stop-color="#6686FF"/>
            <stop offset="1" stop-color="#8F8DE2"/>
        </linearGradient>
        <linearGradient id="paint3_linear" x1="21.2715" y1="9.0929" x2="21.2715" y2="14.2071" gradientUnits="userSpaceOnUse">
            <stop stop-color="#6686FF"/>
            <stop offset="1" stop-color="#8F8DE2"/>
        </linearGradient>
        <linearGradient id="paint4_linear" x1="23.9214" y1="5.49292" x2="23.9214" y2="17.7071" gradientUnits="userSpaceOnUse">
            <stop stop-color="#6686FF"/>
            <stop offset="1" stop-color="#8F8DE2"/>
        </linearGradient>
    </defs>
</svg>
