<svg width="23" height="20" viewBox="0 0 23 20" fill="none" xmlns="http://www.w3.org/2000/svg">
<path d="M1 0C0.447715 0 0 0.447715 0 1C0 1.55228 0.447715 2 1 2H3.75597L6.54217 11.2873C6.66907 11.7103 7.05839 12 7.5 12H18.5C18.9 12 19.2616 11.7616 19.4191 11.3939L22.4191 4.39392C22.5516 4.08495 22.5199 3.73013 22.3348 3.44951C22.1498 3.16888 21.8361 3 21.5 3H9.5C8.94772 3 8.5 3.44772 8.5 4C8.5 4.55228 8.94772 5 9.5 5H19.9835L17.8406 10H8.24403L5.45783 0.712652C5.33093 0.289668 4.94161 0 4.5 0H1Z" fill="#6A86E8"/>
<path fill-rule="evenodd" clip-rule="evenodd" d="M6 13C4.1 13 2.5 14.6 2.5 16.5C2.5 18.4 4.1 20 6 20C7.9 20 9.5 18.4 9.5 16.5C9.5 14.6 7.9 13 6 13ZM6 15C6.8 15 7.5 15.7 7.5 16.5C7.5 17.3 6.8 18 6 18C5.2 18 4.5 17.3 4.5 16.5C4.5 15.7 5.2 15 6 15Z" fill="#6A86E8"/>
<path fill-rule="evenodd" clip-rule="evenodd" d="M19 13C17.1 13 15.5 14.6 15.5 16.5C15.5 18.4 17.1 20 19 20C20.9 20 22.5 18.4 22.5 16.5C22.5 14.6 20.9 13 19 13ZM19 15C19.8 15 20.5 15.7 20.5 16.5C20.5 17.3 19.8 18 19 18C18.2 18 17.5 17.3 17.5 16.5C17.5 15.7 18.2 15 19 15Z" fill="#6A86E8"/>
<path d="M10.5 16C10.5 15.4477 10.9477 15 11.5 15H13.5C14.0523 15 14.5 15.4477 14.5 16C14.5 16.5523 14.0523 17 13.5 17H11.5C10.9477 17 10.5 16.5523 10.5 16Z" fill="#6A86E8"/>
</svg>
