<svg width="27" height="20" viewBox="0 0 27 20" fill="none" xmlns="http://www.w3.org/2000/svg">
<path d="M17.5897 17.9076C18.0294 18.5131 18.6102 19.0157 19.2878 19.377C19.9654 19.7382 20.7218 19.9484 21.4989 19.9915C21.6035 19.9972 21.7084 20 21.8136 20C21.919 20 22.0242 19.9972 22.1282 19.9915C22.9054 19.9485 23.6618 19.7383 24.3395 19.3771C25.0172 19.0159 25.5981 18.5132 26.0378 17.9076C26.504 17.2791 26.8115 16.5585 26.9366 15.8007C27.0617 15.043 27.0012 14.2683 26.7596 13.536L22.6088 0.850636C22.5565 0.690695 22.4512 0.550736 22.3084 0.451226C22.1656 0.351715 21.9928 0.297872 21.8152 0.297572C21.6376 0.297271 21.4646 0.350527 21.3214 0.449554C21.1783 0.54858 21.0725 0.688182 21.0195 0.847944L20.6993 1.82648H16.1217C15.9496 1.29772 15.602 0.834946 15.1301 0.506183C14.6582 0.177419 14.0868 0 13.5 0C12.9132 0 12.3419 0.177419 11.8699 0.506183C11.398 0.834946 11.0505 1.29772 10.8783 1.82648H6.3007L5.9805 0.847944C5.92754 0.688182 5.82174 0.54858 5.67857 0.449554C5.5354 0.350527 5.36238 0.297271 5.18479 0.297572C5.00721 0.297872 4.83439 0.351715 4.6916 0.451226C4.54881 0.550736 4.44354 0.690695 4.39119 0.850636L0.240374 13.536C-0.00116614 14.2683 -0.0616962 15.043 0.06342 15.8007C0.188536 16.5585 0.49598 17.2791 0.962203 17.9076C1.40187 18.5132 1.98281 19.0159 2.6605 19.3771C3.33818 19.7383 4.09461 19.9485 4.87181 19.9915C4.97585 19.9972 5.08101 20 5.18639 20C5.29176 20 5.39652 19.9972 5.50114 19.9915C6.27826 19.9484 7.03459 19.7382 7.71218 19.377C8.38978 19.0157 8.97065 18.5131 9.4103 17.9076C9.87661 17.2792 10.1841 16.5585 10.3093 15.8008C10.4344 15.043 10.3739 14.2683 10.1323 13.536L6.79755 3.34492H10.8786C11.0509 3.87344 11.3986 4.33595 11.8704 4.66451C12.3422 4.99307 12.9134 5.17036 13.5 5.17036C14.0866 5.17036 14.6578 4.99307 15.1297 4.66451C15.6015 4.33595 15.9491 3.87344 16.1215 3.34492H20.2024L16.8677 13.536C16.6261 14.2683 16.5656 15.043 16.6907 15.8008C16.8159 16.5585 17.1234 17.2792 17.5897 17.9076ZM8.5933 13.9835C8.61466 14.0488 8.62781 14.115 8.64508 14.1808H1.72754C1.74488 14.115 1.75795 14.0488 1.77937 13.9835L5.18637 3.57097L8.5933 13.9835ZM13.5 3.65217C13.2761 3.65217 13.0573 3.58959 12.8711 3.47235C12.685 3.35511 12.5399 3.18847 12.4542 2.9935C12.3685 2.79853 12.3461 2.584 12.3898 2.37702C12.4334 2.17005 12.5413 1.97993 12.6996 1.83071C12.8579 1.68149 13.0596 1.57987 13.2792 1.5387C13.4988 1.49753 13.7264 1.51866 13.9332 1.59941C14.1401 1.68017 14.3169 1.81693 14.4413 1.9924C14.5657 2.16786 14.632 2.37415 14.632 2.58518C14.6317 2.86808 14.5124 3.13931 14.3002 3.33935C14.0879 3.53939 13.8002 3.65189 13.5 3.65217H13.5ZM18.4067 13.9835L21.8136 3.57097L25.2206 13.9835C25.2421 14.0488 25.2551 14.115 25.2725 14.1808H18.3549C18.3722 14.115 18.3853 14.0488 18.4067 13.9835Z" fill="#AAAAAA"/>
</svg>
