<svg width="42" height="42" viewBox="0 0 42 42" fill="none" xmlns="http://www.w3.org/2000/svg">
<path style="stroke: rgba(255, 255, 255, .5); stroke-width: 2px;" d="M3 24.1364H5.08386C6.34502 30.5808 11.4192 35.655 17.8636 36.9161V39V40.5H19.3636H22.6364H24.1364V39V36.9161C30.5808 35.655 35.655 30.5808 36.9161 24.1364H39H40.5V22.6364V19.3636V17.8636H39H36.9161C35.655 11.4192 30.5808 6.34502 24.1364 5.08386V3V1.5H22.6364H19.3636H17.8636V3V5.08386C11.4192 6.34502 6.34502 11.4192 5.08386 17.8636H3H1.5V19.3636V22.6364V24.1364H3ZM21 12.9545C16.5552 12.9545 12.9545 16.5552 12.9545 21C12.9545 25.4448 16.5552 29.0455 21 29.0455C25.4448 29.0455 29.0455 25.4448 29.0455 21C29.0455 16.5552 25.4448 12.9545 21 12.9545ZM21 30.9545C15.4957 30.9545 11.0455 26.5043 11.0455 21C11.0455 15.4957 15.4957 11.0455 21 11.0455C26.5043 11.0455 30.9545 15.4957 30.9545 21C30.9545 26.5043 26.5043 30.9545 21 30.9545Z" fill="#6A86E8"/>
</svg>
